MerriweatherSans-Light.ufo
<glyph name="plus" format="1">
  <advance width="1393"/>
  <unicode hex="002B"/>
  <outline>
    <contour>
      <point x="627" y="288" type="line"/>
      <point x="763" y="288" type="line"/>
      <point x="763" y="539" type="line"/>
      <point x="757" y="711" type="line"/>
      <point x="906" y="706" type="line"/>
      <point x="1161" y="706" type="line"/>
      <point x="1161" y="840" type="line"/>
      <point x="906" y="840" type="line"/>
      <point x="757" y="832" type="line"/>
      <point x="763" y="1003" type="line"/>
      <point x="763" y="1247" type="line"/>
      <point x="627" y="1247" type="line"/>
      <point x="627" y="1003" type="line"/>
      <point x="632" y="832" type="line"/>
      <point x="469" y="840" type="line"/>
      <point x="232" y="840" type="line"/>
      <point x="232" y="706" type="line"/>
      <point x="469" y="706" type="line"/>
      <point x="632" y="711" type="line"/>
      <point x="627" y="539" type="line"/>
    </contour>
  </outline>
</glyph>
<glyph name="period" format="1">
  <advance width="601"/>
  <unicode hex="002E"/>
  <outline>
    <contour>
      <point x="295" y="-16" type="curve" smooth="yes"/>
      <point x="361" y="-16"/>
      <point x="420" y="43"/>
      <point x="417" y="125" type="curve" smooth="yes"/>
      <point x="416" y="193"/>
      <point x="378" y="249"/>
      <point x="306" y="249" type="curve" smooth="yes"/>
      <point x="242" y="249"/>
      <point x="183" y="187"/>
      <point x="184" y="108" type="curve" smooth="yes"/>
      <point x="186" y="34"/>
      <point x="237" y="-16"/>
    </contour>
  </outline>
</glyph>
<glyph name="slash" format="1">
  <advance width="854"/>
  <unicode hex="002F"/>
  <outline>
    <contour>
      <point x="66" y="-363" type="line"/>
      <point x="216" y="-363" type="line"/>
      <point x="787" y="1599" type="line"/>
      <point x="636" y="1599" type="line"/>
    </contour>
  </outline>
</glyph>
<glyph name="one" format="1">
  <advance width="914"/>
  <unicode hex="0031"/>
  <outline>
    <contour>
      <point x="409" y="0" type="line"/>
      <point x="583" y="0" type="line"/>
      <point x="583" y="1256" type="line"/>
      <point x="505" y="1278" type="line"/>
      <point x="451" y="1230"/>
      <point x="261" y="1118"/>
      <point x="127" y="1078" type="curve"/>
      <point x="147" y="977" type="line"/>
      <point x="235" y="998"/>
      <point x="326" y="1032"/>
      <point x="409" y="1067" type="curve"/>
    </contour>
  </outline>
</glyph>
<glyph name="six" format="1">
  <advance width="1377"/>
  <unicode hex="0036"/>
  <outline>
    <contour>
      <point x="168" y="570" type="curve" smooth="yes"/>
      <point x="168" y="254"/>
      <point x="356" y="-16"/>
      <point x="680" y="-16" type="curve" smooth="yes"/>
      <point x="1030" y="-16"/>
      <point x="1205" y="261"/>
      <point x="1205" y="546" type="curve" smooth="yes"/>
      <point x="1205" y="775"/>
      <point x="1059" y="985"/>
      <point x="798" y="985" type="curve" smooth="yes"/>
      <point x="664" y="985"/>
      <point x="556" y="935"/>
      <point x="515" y="895" type="curve"/>
      <point x="562" y="795" type="line"/>
      <point x="593" y="820"/>
      <point x="667" y="855"/>
      <point x="764" y="855" type="curve" smooth="yes"/>
      <point x="902" y="855"/>
      <point x="1036" y="764"/>
      <point x="1036" y="512" type="curve" smooth="yes"/>
      <point x="1036" y="318"/>
      <point x="931" y="101"/>
      <point x="701" y="101" type="curve" smooth="yes"/>
      <point x="433" y="101"/>
      <point x="343" y="358"/>
      <point x="349" y="641" type="curve" smooth="yes"/>
      <point x="356" y="986"/>
      <point x="628" y="1354"/>
      <point x="1038" y="1460" type="curve"/>
      <point x="992" y="1568" type="line"/>
      <point x="609" y="1493"/>
      <point x="168" y="1104"/>
    </contour>
  </outline>
</glyph>
<glyph name="H" format="1">
  <advance width="1542"/>
  <unicode hex="0048"/>
  <outline>
    <contour>
      <point x="206" y="0" type="line"/>
      <point x="375" y="0" type="line"/>
      <point x="375" y="710" type="line"/>
      <point x="1167" y="710" type="line"/>
      <point x="1167" y="0" type="line"/>
      <point x="1336" y="0" type="line"/>
      <point x="1336" y="1522" type="line"/>
      <point x="1167" y="1522" type="line"/>
      <point x="1167" y="840" type="line"/>
      <point x="375" y="840" type="line"/>
      <point x="375" y="1522" type="line"/>
      <point x="206" y="1522" type="line"/>
    </contour>
    <contour>
      <point x="768" y="-170" type="move" name="btm"/>
    </contour>
    <contour>
      <point x="772" y="1700" type="move" name="top"/>
    </contour>
  </outline>
</glyph>
<glyph name="P" format="1">
  <advance width="1279"/>
  <unicode hex="0050"/>
  <outline>
    <contour>
      <point x="206" y="0" type="line"/>
      <point x="375" y="0" type="line"/>
      <point x="375" y="535" type="line"/>
      <point x="415" y="534"/>
      <point x="514" y="526"/>
      <point x="622" y="527" type="curve" smooth="yes"/>
      <point x="975" y="529"/>
      <point x="1193" y="715"/>
      <point x="1193" y="1045" type="curve" smooth="yes"/>
      <point x="1193" y="1400"/>
      <point x="988" y="1536"/>
      <point x="666" y="1536" type="curve" smooth="yes"/>
      <point x="533" y="1536"/>
      <point x="401" y="1522"/>
      <point x="288" y="1522" type="curve" smooth="yes"/>
      <point x="206" y="1522" type="line"/>
    </contour>
    <contour>
      <point x="375" y="664" type="curve"/>
      <point x="375" y="1398" type="line"/>
      <point x="446" y="1408"/>
      <point x="538" y="1412"/>
      <point x="616" y="1414" type="curve" smooth="yes"/>
      <point x="889" y="1420"/>
      <point x="1024" y="1310"/>
      <point x="1024" y="1044" type="curve" smooth="yes"/>
      <point x="1024" y="754"/>
      <point x="843" y="655"/>
      <point x="612" y="652" type="curve" smooth="yes"/>
      <point x="551" y="652"/>
      <point x="437" y="656"/>
    </contour>
    <contour>
      <point x="702" y="-170" type="move" name="btm"/>
    </contour>
    <contour>
      <point x="677" y="1700" type="move" name="top"/>
    </contour>
  </outline>
</glyph>
<glyph name="g" format="1">
  <advance width="1224"/>
  <unicode hex="0067"/>
  <outline>
    <contour>
      <point x="577" y="380" type="curve" smooth="yes"/>
      <point x="828" y="380"/>
      <point x="1028" y="520"/>
      <point x="1028" y="778" type="curve" smooth="yes"/>
      <point x="1028" y="1041"/>
      <point x="821" y="1161"/>
      <point x="583" y="1156" type="curve" smooth="yes"/>
      <point x="340" y="1151"/>
      <point x="142" y="1029"/>
      <point x="142" y="758" type="curve" smooth="yes"/>
      <point x="142" y="528"/>
      <point x="332" y="380"/>
    </contour>
    <contour>
      <point x="1191" y="1003" type="line"/>
      <point x="1191" y="1137" type="line"/>
      <point x="1084" y="1137" type="line" smooth="yes"/>
      <point x="982" y="1137"/>
      <point x="869" y="1100"/>
      <point x="838" y="1070" type="curve"/>
      <point x="896" y="1003" type="line"/>
    </contour>
    <contour>
      <point x="580" y="492" type="curve" smooth="yes"/>
      <point x="402" y="492"/>
      <point x="308" y="610"/>
      <point x="308" y="766" type="curve" smooth="yes"/>
      <point x="308" y="979"/>
      <point x="444" y="1041"/>
      <point x="592" y="1042" type="curve" smooth="yes"/>
      <point x="759" y="1043"/>
      <point x="862" y="954"/>
      <point x="862" y="772" type="curve" smooth="yes"/>
      <point x="862" y="569"/>
      <point x="746" y="492"/>
    </contour>
    <contour>
      <point x="599" y="-517" type="curve" smooth="yes"/>
      <point x="903" y="-518"/>
      <point x="1149" y="-377"/>
      <point x="1149" y="-151" type="curve" smooth="yes"/>
      <point x="1149" y="-8"/>
      <point x="1084" y="132"/>
      <point x="757" y="132" type="curve" smooth="yes"/>
      <point x="510" y="132" type="line" smooth="yes"/>
      <point x="389" y="132"/>
      <point x="347" y="162"/>
      <point x="347" y="259" type="curve" smooth="yes"/>
      <point x="347" y="328"/>
      <point x="402" y="395"/>
      <point x="446" y="415" type="curve"/>
      <point x="339" y="446" type="line"/>
      <point x="254" y="388"/>
      <point x="195" y="297"/>
      <point x="194" y="217" type="curve" smooth="yes"/>
      <point x="193" y="143"/>
      <point x="212" y="69"/>
      <point x="312" y="32" type="curve" smooth="yes"/>
      <point x="324" y="28"/>
      <point x="335" y="19"/>
      <point x="348" y="16" type="curve" smooth="yes"/>
      <point x="393" y="5"/>
      <point x="454" y="0"/>
      <point x="535" y="0" type="curve" smooth="yes"/>
      <point x="689" y="0" type="line" smooth="yes"/>
      <point x="914" y="0"/>
      <point x="989" y="-55"/>
      <point x="989" y="-186" type="curve" smooth="yes"/>
      <point x="989" y="-333"/>
      <point x="801" y="-402"/>
      <point x="605" y="-402" type="curve" smooth="yes"/>
      <point x="388" y="-402"/>
      <point x="284" y="-334"/>
      <point x="284" y="-174" type="curve" smooth="yes"/>
      <point x="284" y="-55"/>
      <point x="367" y="6"/>
      <point x="416" y="40" type="curve"/>
      <point x="304" y="58" type="line"/>
      <point x="231" y="27"/>
      <point x="121" y="-65"/>
      <point x="121" y="-194" type="curve" smooth="yes"/>
      <point x="121" y="-421"/>
      <point x="309" y="-517"/>
    </contour>
    <contour>
      <point x="606" y="1700" type="move" name="top"/>
    </contour>
  </outline>
</glyph>
<glyph name="s" format="1">
  <advance width="984"/>
  <unicode hex="0073"/>
  <outline>
    <contour>
      <point x="123" y="66" type="line"/>
      <point x="189" y="23"/>
      <point x="339" y="-16"/>
      <point x="485" y="-16" type="curve" smooth="yes"/>
      <point x="728" y="-16"/>
      <point x="883" y="97"/>
      <point x="883" y="297" type="curve" smooth="yes"/>
      <point x="883" y="494"/>
      <point x="686" y="584"/>
      <point x="536" y="643" type="curve" smooth="yes"/>
      <point x="388" y="700"/>
      <point x="285" y="757"/>
      <point x="287" y="877" type="curve" smooth="yes"/>
      <point x="288" y="967"/>
      <point x="373" y="1032"/>
      <point x="536" y="1032" type="curve" smooth="yes"/>
      <point x="648" y="1032"/>
      <point x="756" y="1000"/>
      <point x="795" y="970" type="curve"/>
      <point x="823" y="1097" type="line"/>
      <point x="783" y="1120"/>
      <point x="663" y="1157"/>
      <point x="530" y="1156" type="curve" smooth="yes"/>
      <point x="316" y="1155"/>
      <point x="136" y="1064"/>
      <point x="132" y="868" type="curve" smooth="yes"/>
      <point x="130" y="682"/>
      <point x="280" y="584"/>
      <point x="455" y="513" type="curve" smooth="yes"/>
      <point x="591" y="458"/>
      <point x="727" y="405"/>
      <point x="727" y="285" type="curve" smooth="yes"/>
      <point x="727" y="167"/>
      <point x="623" y="108"/>
      <point x="477" y="108" type="curve" smooth="yes"/>
      <point x="339" y="110"/>
      <point x="192" y="162"/>
      <point x="149" y="192" type="curve"/>
    </contour>
    <contour>
      <point x="490" y="-170" type="move" name="btm"/>
    </contour>
    <contour>
      <point x="514" y="1700" type="move" name="top"/>
    </contour>
  </outline>
</glyph>
<glyph name="w" format="1">
  <advance width="1635"/>
  <unicode hex="0077"/>
  <outline>
    <contour>
      <point x="398" y="-18" type="line"/>
      <point x="556" y="-18" type="line"/>
      <point x="788" y="819" type="line"/>
      <point x="840" y="1054" type="line"/>
      <point x="803" y="1054" type="line"/>
      <point x="850" y="819" type="line"/>
      <point x="1087" y="-18" type="line"/>
      <point x="1241" y="-18" type="line"/>
      <point x="1596" y="1140" type="line"/>
      <point x="1433" y="1140" type="line"/>
      <point x="1212" y="352" type="line"/>
      <point x="1147" y="79" type="line"/>
      <point x="1191" y="79" type="line"/>
      <point x="1127" y="357" type="line"/>
      <point x="904" y="1140" type="line"/>
      <point x="739" y="1140" type="line"/>
      <point x="518" y="357" type="line"/>
      <point x="456" y="76" type="line"/>
      <point x="503" y="76" type="line"/>
      <point x="435" y="357" type="line"/>
      <point x="206" y="1140" type="line"/>
      <point x="39" y="1140" type="line"/>
    </contour>
    <contour>
      <point x="824" y="-165" type="move" name="btm"/>
    </contour>
    <contour>
      <point x="824" y="1708" type="move" name="top"/>
    </contour>
  </outline>
</glyph>
<glyph name="paragraph" format="1">
  <advance width="1319"/>
  <unicode hex="00B6"/>
  <outline>
    <contour>
      <point x="532" y="0" type="line"/>
      <point x="672" y="0" type="line"/>
      <point x="672" y="1586" type="line"/>
      <point x="700" y="1588"/>
      <point x="936" y="1579"/>
      <point x="954" y="1579" type="curve"/>
      <point x="954" y="0" type="line"/>
      <point x="1094" y="0" type="line"/>
      <point x="1094" y="1689" type="line"/>
      <point x="979" y="1692"/>
      <point x="743" y="1711"/>
      <point x="649" y="1711" type="curve" smooth="yes"/>
      <point x="278" y="1711"/>
      <point x="91" y="1539"/>
      <point x="91" y="1277" type="curve" smooth="yes"/>
      <point x="91" y="968"/>
      <point x="235" y="832"/>
      <point x="532" y="832" type="curve"/>
    </contour>
  </outline>
</glyph>
<glyph name="onequarter" format="1">
  <advance width="2428"/>
  <unicode hex="00BC"/>
  <outline>
    <contour>
      <point x="1374" y="227" type="line"/>
      <point x="2263" y="227" type="line"/>
      <point x="2262" y="343" type="line"/>
      <point x="1518" y="343" type="line"/>
      <point x="1574" y="443" type="line"/>
      <point x="1958" y="1072" type="line"/>
      <point x="1859" y="1131" type="line"/>
      <point x="1807" y="1131" type="line"/>
      <point x="1333" y="299" type="line"/>
    </contour>
    <contour>
      <point x="1914" y="-56" type="line"/>
      <point x="2070" y="-56" type="line"/>
      <point x="2070" y="641" type="line"/>
      <point x="1921" y="625" type="line"/>
      <point x="1915" y="345" type="line"/>
    </contour>
    <contour>
      <point x="487" y="662" type="line"/>
      <point x="648" y="662" type="line"/>
      <point x="648" y="1667" type="line"/>
      <point x="566" y="1688" type="line"/>
      <point x="519" y="1649"/>
      <point x="337" y="1529"/>
      <point x="216" y="1494" type="curve"/>
      <point x="248" y="1402" type="line"/>
      <point x="349" y="1424"/>
      <point x="416" y="1469"/>
      <point x="487" y="1487" type="curve"/>
    </contour>
    <component base="fraction" xOffset="603"/>
  </outline>
</glyph>
<glyph name="Aogonek" format="1">
  <advance width="1393"/>
  <unicode hex="0104"/>
  <outline>
    <contour>
      <point x="902" y="-312" type="curve"/>
      <point x="903" y="-448"/>
      <point x="1010" y="-512"/>
      <point x="1143" y="-512" type="curve" smooth="yes"/>
      <point x="1227" y="-512"/>
      <point x="1323" y="-491"/>
      <point x="1377" y="-450" type="curve"/>
      <point x="1377" y="-358" type="line"/>
      <point x="1324" y="-384"/>
      <point x="1267" y="-398"/>
      <point x="1216" y="-399" type="curve" smooth="yes"/>
      <point x="1132" y="-399"/>
      <point x="1068" y="-373"/>
      <point x="1066" y="-280" type="curve"/>
      <point x="1065" y="-157"/>
      <point x="1238" y="-45"/>
      <point x="1339" y="8" type="curve"/>
      <point x="1315" y="22" type="line"/>
      <point x="1203" y="6" type="line"/>
      <point x="1084" y="-51"/>
      <point x="900" y="-167"/>
    </contour>
    <component base="A"/>
  </outline>
</glyph>
<glyph name="Iogonek" format="1">
  <advance width="613"/>
  <unicode hex="012E"/>
  <outline>
    <contour>
      <point x="34" y="-299" type="curve"/>
      <point x="35" y="-435"/>
      <point x="146" y="-512"/>
      <point x="287" y="-512" type="curve" smooth="yes"/>
      <point x="371" y="-512"/>
      <point x="461" y="-491"/>
      <point x="515" y="-450" type="curve"/>
      <point x="515" y="-358" type="line"/>
      <point x="462" y="-384"/>
      <point x="404" y="-398"/>
      <point x="352" y="-399" type="curve" smooth="yes"/>
      <point x="269" y="-399"/>
      <point x="199" y="-359"/>
      <point x="198" y="-267" type="curve"/>
      <point x="196" y="-149"/>
      <point x="287" y="-53"/>
      <point x="373" y="1" type="curve"/>
      <point x="349" y="15" type="line"/>
      <point x="252" y="6" type="line"/>
      <point x="156" y="-49"/>
      <point x="32" y="-167"/>
    </contour>
    <component base="I"/>
  </outline>
</glyph>
<glyph name="eng" format="1">
  <advance width="1294"/>
  <unicode hex="014B"/>
  <outline>
    <contour>
      <point x="193" y="0" type="line"/>
      <point x="361" y="0" type="line"/>
      <point x="361" y="879" type="line"/>
      <point x="448" y="947"/>
      <point x="597" y="1014"/>
      <point x="706" y="1017" type="curve" smooth="yes"/>
      <point x="880" y="1023"/>
      <point x="942" y="951"/>
      <point x="942" y="704" type="curve" smooth="yes"/>
      <point x="942" y="-36" type="line" smooth="yes"/>
      <point x="942" y="-294"/>
      <point x="892" y="-388"/>
      <point x="757" y="-389" type="curve" smooth="yes"/>
      <point x="728" y="-389"/>
      <point x="669" y="-384"/>
      <point x="650" y="-377" type="curve"/>
      <point x="650" y="-493" type="line"/>
      <point x="666" y="-500"/>
      <point x="753" y="-507"/>
      <point x="791" y="-507" type="curve" smooth="yes"/>
      <point x="1005" y="-507"/>
      <point x="1108" y="-323"/>
      <point x="1108" y="-14" type="curve" smooth="yes"/>
      <point x="1108" y="708" type="line" smooth="yes"/>
      <point x="1108" y="1044"/>
      <point x="1018" y="1162"/>
      <point x="773" y="1157" type="curve"/>
      <point x="603" y="1152"/>
      <point x="425" y="1054"/>
      <point x="342" y="993" type="curve"/>
      <point x="342" y="1139" type="line"/>
      <point x="193" y="1139" type="line"/>
    </contour>
  </outline>
</glyph>
<glyph name="OE" format="1">
  <advance width="2057"/>
  <unicode hex="0152"/>
  <outline>
    <contour>
      <point x="110" y="764" type="curve" smooth="yes"/>
      <point x="101" y="310"/>
      <point x="366" y="-24"/>
      <point x="786" y="-16" type="curve" smooth="yes"/>
      <point x="944" y="-13"/>
      <point x="1052" y="35"/>
      <point x="1152" y="118" type="curve"/>
      <point x="1152" y="283" type="line"/>
      <point x="1089" y="192"/>
      <point x="964" y="112"/>
      <point x="793" y="112" type="curve" smooth="yes"/>
      <point x="454" y="112"/>
      <point x="280" y="410"/>
      <point x="280" y="755" type="curve" smooth="yes"/>
      <point x="280" y="1210"/>
      <point x="544" y="1409"/>
      <point x="812" y="1409" type="curve" smooth="yes"/>
      <point x="984" y="1409"/>
      <point x="1095" y="1343"/>
      <point x="1156" y="1260" type="curve"/>
      <point x="1140" y="1441" type="line"/>
      <point x="1049" y="1515"/>
      <point x="922" y="1541"/>
      <point x="816" y="1538" type="curve" smooth="yes"/>
      <point x="413" y="1525"/>
      <point x="119" y="1267"/>
    </contour>
    <contour>
      <point x="1094" y="0" type="line"/>
      <point x="1991" y="0" type="line"/>
      <point x="1991" y="134" type="line"/>
      <point x="1263" y="134" type="line"/>
      <point x="1263" y="720" type="line"/>
      <point x="1748" y="720" type="line"/>
      <point x="1748" y="852" type="line"/>
      <point x="1263" y="852" type="line"/>
      <point x="1263" y="1391" type="line"/>
      <point x="1917" y="1391" type="line"/>
      <point x="1917" y="1522" type="line"/>
      <point x="1094" y="1522" type="line"/>
    </contour>
    <contour>
      <point x="1062" y="-170" type="move" name="btm"/>
    </contour>
    <contour>
      <point x="1085" y="1700" type="move" name="top"/>
    </contour>
  </outline>
</glyph>
<glyph name="oe" format="1">
  <advance width="1979"/>
  <unicode hex="0153"/>
  <outline>
    <contour>
      <point x="1451" y="-16" type="curve" smooth="yes"/>
      <point x="1592" y="-16"/>
      <point x="1762" y="27"/>
      <point x="1838" y="89" type="curve"/>
      <point x="1805" y="186" type="line"/>
      <point x="1745" y="147"/>
      <point x="1595" y="111"/>
      <point x="1492" y="111" type="curve" smooth="yes"/>
      <point x="1282" y="111"/>
      <point x="1128" y="220"/>
      <point x="1119" y="513" type="curve"/>
      <point x="1109" y="887"/>
      <point x="1257" y="1037"/>
      <point x="1454" y="1037" type="curve" smooth="yes"/>
      <point x="1661" y="1037"/>
      <point x="1728" y="874"/>
      <point x="1717" y="665" type="curve"/>
      <point x="1071" y="665" type="line"/>
      <point x="1056" y="553" type="line"/>
      <point x="1866" y="553" type="line"/>
      <point x="1874" y="600"/>
      <point x="1874" y="655"/>
      <point x="1874" y="728" type="curve" smooth="yes"/>
      <point x="1868" y="988"/>
      <point x="1707" y="1159"/>
      <point x="1465" y="1156" type="curve" smooth="yes"/>
      <point x="1138" y="1152"/>
      <point x="955" y="908"/>
      <point x="955" y="565" type="curve" smooth="yes"/>
      <point x="955" y="200"/>
      <point x="1131" y="-16"/>
    </contour>
    <contour>
      <point x="607" y="103" type="curve" smooth="yes"/>
      <point x="375" y="106"/>
      <point x="274" y="329"/>
      <point x="275" y="589" type="curve" smooth="yes"/>
      <point x="276" y="874"/>
      <point x="408" y="1038"/>
      <point x="622" y="1035" type="curve"/>
      <point x="850" y="1033"/>
      <point x="956" y="823"/>
      <point x="955" y="561" type="curve" smooth="yes"/>
      <point x="954" y="276"/>
      <point x="825" y="100"/>
    </contour>
    <contour>
      <point x="602" y="-16" type="curve" smooth="yes"/>
      <point x="896" y="-16"/>
      <point x="1113" y="191"/>
      <point x="1118" y="554" type="curve" smooth="yes"/>
      <point x="1121" y="877"/>
      <point x="981" y="1156"/>
      <point x="626" y="1156" type="curve" smooth="yes"/>
      <point x="335" y="1156"/>
      <point x="111" y="955"/>
      <point x="105" y="591" type="curve" smooth="yes"/>
      <point x="101" y="269"/>
      <point x="240" y="-16"/>
    </contour>
    <contour>
      <point x="1012" y="-170" type="move" name="btm"/>
    </contour>
    <contour>
      <point x="1012" y="1700" type="move" name="top"/>
    </contour>
  </outline>
</glyph>
<glyph name="tbar" format="1">
  <advance width="849"/>
  <unicode hex="0167"/>
  <outline>
    <contour>
      <point x="80" y="617" type="line"/>
      <point x="759" y="617" type="line"/>
      <point x="759" y="742" type="line"/>
      <point x="80" y="742" type="line"/>
    </contour>
    <component base="t"/>
  </outline>
</glyph>
<glyph name="florin" format="1">
  <advance width="1119"/>
  <unicode hex="0192"/>
  <outline>
    <contour>
      <point x="325" y="-356" type="line"/>
      <point x="489" y="-356" type="line"/>
      <point x="602" y="1013" type="line"/>
      <point x="923" y="1013" type="line"/>
      <point x="932" y="1141" type="line"/>
      <point x="612" y="1141" type="line"/>
      <point x="626" y="1256" type="line" smooth="yes"/>
      <point x="650" y="1474"/>
      <point x="751" y="1551"/>
      <point x="879" y="1551" type="curve" smooth="yes"/>
      <point x="968" y="1551"/>
      <point x="1021" y="1542"/>
      <point x="1037" y="1532" type="curve"/>
      <point x="1047" y="1669" type="line"/>
      <point x="1033" y="1675"/>
      <point x="989" y="1686"/>
      <point x="900" y="1686" type="curve" smooth="yes"/>
      <point x="681" y="1686"/>
      <point x="500" y="1555"/>
      <point x="458" y="1209" type="curve" smooth="yes"/>
      <point x="450" y="1141" type="line"/>
      <point x="225" y="1101" type="line"/>
      <point x="219" y="1013" type="line"/>
      <point x="440" y="1013" type="line"/>
    </contour>
  </outline>
</glyph>
<glyph name="quoteright" format="1">
  <advance width="498"/>
  <unicode hex="2019"/>
  <outline>
    <contour>
      <point x="195" y="963" type="line"/>
      <point x="271" y="1018"/>
      <point x="390" y="1172"/>
      <point x="390" y="1424" type="curve" smooth="yes"/>
      <point x="390" y="1582"/>
      <point x="330" y="1696"/>
      <point x="234" y="1737" type="curve"/>
      <point x="126" y="1649" type="line"/>
      <point x="126" y="1602" type="line"/>
      <point x="184" y="1573"/>
      <point x="233" y="1466"/>
      <point x="233" y="1362" type="curve" smooth="yes"/>
      <point x="233" y="1219"/>
      <point x="171" y="1082"/>
      <point x="123" y="1035" type="curve"/>
      <point x="123" y="1010" type="line"/>
    </contour>
  </outline>
</glyph>
<glyph name="quotereversed" format="1">
  <advance width="498"/>
  <unicode hex="201B"/>
  <outline>
    <contour>
      <point x="289" y="1737" type="line"/>
      <point x="170" y="1696"/>
      <point x="96" y="1552"/>
      <point x="96" y="1393" type="curve" smooth="yes"/>
      <point x="96" y="1174"/>
      <point x="227" y="1018"/>
      <point x="311" y="963" type="curve"/>
      <point x="383" y="1010" type="line"/>
      <point x="383" y="1035" type="line"/>
      <point x="324" y="1082"/>
      <point x="253" y="1219"/>
      <point x="253" y="1362" type="curve" smooth="yes"/>
      <point x="253" y="1462"/>
      <point x="309" y="1567"/>
      <point x="375" y="1595" type="curve"/>
      <point x="375" y="1641" type="line"/>
    </contour>
  </outline>
</glyph>
<glyph name="perthousand" format="1">
  <advance width="2767"/>
  <unicode hex="2030"/>
  <outline>
    <contour>
      <point x="2307" y="56" type="curve" smooth="yes"/>
      <point x="2503" y="61"/>
      <point x="2682" y="201"/>
      <point x="2682" y="461" type="curve" smooth="yes"/>
      <point x="2682" y="684"/>
      <point x="2577" y="868"/>
      <point x="2337" y="861" type="curve" smooth="yes"/>
      <point x="2140" y="855"/>
      <point x="1961" y="713"/>
      <point x="1961" y="452" type="curve" smooth="yes"/>
      <point x="1961" y="237"/>
      <point x="2089" y="51"/>
    </contour>
    <contour>
      <point x="2317" y="168" type="curve" smooth="yes"/>
      <point x="2187" y="167"/>
      <point x="2111" y="295"/>
      <point x="2111" y="458" type="curve" smooth="yes"/>
      <point x="2111" y="638"/>
      <point x="2197" y="748"/>
      <point x="2327" y="750" type="curve" smooth="yes"/>
      <point x="2463" y="752"/>
      <point x="2533" y="629"/>
      <point x="2533" y="456" type="curve" smooth="yes"/>
      <point x="2533" y="275"/>
      <point x="2446" y="169"/>
    </contour>
    <component base="percent"/>
  </outline>
</glyph>
<glyph name="minute" format="1">
  <advance width="643"/>
  <unicode hex="2032"/>
  <outline>
    <contour>
      <point x="197" y="1190" type="line"/>
      <point x="321" y="1190" type="line"/>
      <point x="478" y="1790" type="line"/>
      <point x="303" y="1790" type="line"/>
    </contour>
  </outline>
</glyph>
<glyph name="rupeeIndian" format="1">
  <advance width="1384"/>
  <unicode hex="20B9"/>
  <outline>
    <contour>
      <point x="1195" y="0" type="line"/>
      <point x="1061" y="146"/>
      <point x="971" y="563"/>
      <point x="776" y="678" type="curve"/>
      <point x="895" y="728"/>
      <point x="1058" y="851"/>
      <point x="1093" y="1049" type="curve"/>
      <point x="1294" y="1049" type="line"/>
      <point x="1294" y="1171" type="line"/>
      <point x="1099" y="1171" type="line"/>
      <point x="1091" y="1290"/>
      <point x="1049" y="1361"/>
      <point x="1004" y="1408" type="curve"/>
      <point x="1326" y="1408" type="line"/>
      <point x="1326" y="1522" type="line"/>
      <point x="170" y="1522" type="line"/>
      <point x="170" y="1408" type="line"/>
      <point x="739" y="1408" type="line"/>
      <point x="910" y="1403"/>
      <point x="946" y="1298"/>
      <point x="951" y="1171" type="curve"/>
      <point x="170" y="1171" type="line"/>
      <point x="170" y="1049" type="line"/>
      <point x="944" y="1049" type="line"/>
      <point x="907" y="860"/>
      <point x="731" y="732"/>
      <point x="539" y="732" type="curve" smooth="yes"/>
      <point x="376" y="732"/>
      <point x="237" y="731"/>
      <point x="170" y="739" type="curve"/>
      <point x="170" y="631" type="line"/>
      <point x="214" y="626"/>
      <point x="433" y="608"/>
      <point x="662" y="635" type="curve"/>
      <point x="807" y="518"/>
      <point x="950" y="0"/>
      <point x="1022" y="0" type="curve" smooth="yes"/>
    </contour>
  </outline>
</glyph>
<glyph name="trademark" format="1">
  <advance width="2218"/>
  <unicode hex="2122"/>
  <outline>
    <contour>
      <point x="458" y="767" type="line"/>
      <point x="598" y="767" type="line"/>
      <point x="598" y="1430" type="line"/>
      <point x="874" y="1428" type="line"/>
      <point x="874" y="1546" type="line"/>
      <point x="189" y="1546" type="line"/>
      <point x="189" y="1428" type="line"/>
      <point x="458" y="1430" type="line"/>
    </contour>
    <contour>
      <point x="1163" y="767" type="line"/>
      <point x="1186" y="1305" type="line"/>
      <point x="1190" y="1486" type="line"/>
      <point x="1178" y="1486" type="line"/>
      <point x="1251" y="1304" type="line"/>
      <point x="1474" y="762" type="line"/>
      <point x="1565" y="762" type="line"/>
      <point x="1776" y="1320" type="line"/>
      <point x="1834" y="1483" type="line"/>
      <point x="1823" y="1483" type="line"/>
      <point x="1833" y="1287" type="line"/>
      <point x="1868" y="767" type="line"/>
      <point x="2004" y="767" type="line"/>
      <point x="1937" y="1546" type="line"/>
      <point x="1729" y="1546" type="line"/>
      <point x="1552" y="1071" type="line"/>
      <point x="1497" y="841" type="line"/>
      <point x="1546" y="841" type="line"/>
      <point x="1479" y="1072" type="line"/>
      <point x="1291" y="1546" type="line"/>
      <point x="1070" y="1546" type="line"/>
      <point x="1033" y="767" type="line"/>
    </contour>
  </outline>
</glyph>
<glyph name="minus" format="1">
  <advance width="1350"/>
  <unicode hex="2212"/>
  <outline>
    <contour>
      <point x="247" y="705" type="line"/>
      <point x="1103" y="705" type="line"/>
      <point x="1103" y="840" type="line"/>
      <point x="247" y="840" type="line"/>
    </contour>
  </outline>
</glyph>
<glyph name="lessequal" format="1">
  <advance width="1368"/>
  <unicode hex="2264"/>
  <outline>
    <contour>
      <point x="173" y="0" type="line"/>
      <point x="1138" y="0" type="line"/>
      <point x="1138" y="124" type="line"/>
      <point x="173" y="124" type="line"/>
    </contour>
    <contour>
      <point x="1138" y="263" type="line"/>
      <point x="1138" y="418" type="line"/>
      <point x="329" y="778" type="line"/>
      <point x="329" y="768" type="line"/>
      <point x="1138" y="1128" type="line"/>
      <point x="1138" y="1282" type="line"/>
      <point x="173" y="834" type="line"/>
      <point x="173" y="711" type="line"/>
    </contour>
  </outline>
</glyph>
<glyph name="caron.cap" format="1">
  <advance width="762"/>
  <outline>
    <contour>
      <point x="317" y="1667" type="line"/>
      <point x="465" y="1667" type="line"/>
      <point x="730" y="1938" type="line"/>
      <point x="638" y="1982" type="line"/>
      <point x="390" y="1780" type="line"/>
      <point x="146" y="1982" type="line"/>
      <point x="49" y="1936" type="line"/>
    </contour>
    <contour>
      <point x="390" y="1700" type="move" name="_top"/>
    </contour>
  </outline>
</glyph>
<glyph name="caronvertical" format="1">
  <advance width="305"/>
  <outline>
    <contour>
      <point x="146" y="1037" type="line"/>
      <point x="209" y="1115"/>
      <point x="265" y="1271"/>
      <point x="265" y="1447" type="curve" smooth="yes"/>
      <point x="265" y="1550"/>
      <point x="247" y="1647"/>
      <point x="205" y="1685" type="curve"/>
      <point x="72" y="1644" type="line"/>
      <point x="62" y="1607" type="line"/>
      <point x="91" y="1571"/>
      <point x="115" y="1477"/>
      <point x="115" y="1399" type="curve" smooth="yes"/>
      <point x="115" y="1216"/>
      <point x="76" y="1149"/>
      <point x="55" y="1086" type="curve"/>
      <point x="62" y="1063" type="line"/>
    </contour>
  </outline>
</glyph>
<glyph name="dotaccent.cap" format="1">
  <advance width="330"/>
  <outline>
    <contour>
      <point x="157" y="1691" type="curve" smooth="yes"/>
      <point x="221" y="1691"/>
      <point x="278" y="1740"/>
      <point x="278" y="1817" type="curve" smooth="yes"/>
      <point x="278" y="1879"/>
      <point x="245" y="1926"/>
      <point x="173" y="1926" type="curve" smooth="yes"/>
      <point x="112" y="1926"/>
      <point x="51" y="1872"/>
      <point x="51" y="1801" type="curve" smooth="yes"/>
      <point x="51" y="1731"/>
      <point x="99" y="1691"/>
    </contour>
    <contour>
      <point x="164" y="1700" type="move" name="_top"/>
    </contour>
  </outline>
</glyph>
<glyph name="ring.cap" format="1">
  <advance width="713"/>
  <outline>
    <contour>
      <point x="353" y="1459" type="curve" smooth="yes"/>
      <point x="517" y="1459"/>
      <point x="664" y="1536"/>
      <point x="666" y="1719" type="curve" smooth="yes"/>
      <point x="667" y="1884"/>
      <point x="547" y="1972"/>
      <point x="358" y="1972" type="curve" smooth="yes"/>
      <point x="207" y="1972"/>
      <point x="50" y="1905"/>
      <point x="47" y="1721" type="curve" smooth="yes"/>
      <point x="44" y="1559"/>
      <point x="163" y="1459"/>
    </contour>
    <contour>
      <point x="354" y="1556" type="curve" smooth="yes"/>
      <point x="235" y="1558"/>
      <point x="165" y="1620"/>
      <point x="166" y="1721" type="curve" smooth="yes"/>
      <point x="167" y="1842"/>
      <point x="264" y="1877"/>
      <point x="357" y="1877" type="curve" smooth="yes"/>
      <point x="469" y="1876"/>
      <point x="548" y="1823"/>
      <point x="548" y="1718" type="curve" smooth="yes"/>
      <point x="548" y="1600"/>
      <point x="462" y="1555"/>
    </contour>
    <contour>
      <point x="357" y="1700" type="move" name="_top"/>
    </contour>
  </outline>
</glyph>
